<mxfile host="app.diagrams.net" agent="Mozilla/5.0 (X11; Linux x86_64) AppleWebKit/537.36 (KHTML, like Gecko) Chrome/133.0.0.0 Safari/537.36" version="26.0.16">
  <diagram name="Page-1" id="LnTseGqsPmocwF-sNzab">
    <mxGraphModel dx="1912" dy="997" grid="1" gridSize="10" guides="1" tooltips="1" connect="1" arrows="1" fold="1" page="1" pageScale="1" pageWidth="850" pageHeight="1100" math="0" shadow="0">
      <root>
        <mxCell id="0" />
        <mxCell id="1" parent="0" />
        <mxCell id="9b69lBWZdK4Pjx5Hf-To-9" style="edgeStyle=orthogonalEdgeStyle;rounded=0;orthogonalLoop=1;jettySize=auto;html=1;exitX=0.5;exitY=1;exitDx=0;exitDy=0;jumpSize=9;strokeWidth=3;" edge="1" parent="1" source="9b69lBWZdK4Pjx5Hf-To-1" target="9b69lBWZdK4Pjx5Hf-To-2">
          <mxGeometry relative="1" as="geometry" />
        </mxCell>
        <mxCell id="9b69lBWZdK4Pjx5Hf-To-1" value="&lt;font style=&quot;font-size: 28px;&quot;&gt;Backend Server is Started&lt;/font&gt;" style="rounded=0;whiteSpace=wrap;html=1;" vertex="1" parent="1">
          <mxGeometry x="120" y="40" width="500" height="100" as="geometry" />
        </mxCell>
        <mxCell id="9b69lBWZdK4Pjx5Hf-To-10" style="edgeStyle=orthogonalEdgeStyle;rounded=0;orthogonalLoop=1;jettySize=auto;html=1;entryX=0.5;entryY=0;entryDx=0;entryDy=0;jumpSize=9;strokeWidth=3;" edge="1" parent="1" source="9b69lBWZdK4Pjx5Hf-To-2" target="9b69lBWZdK4Pjx5Hf-To-3">
          <mxGeometry relative="1" as="geometry" />
        </mxCell>
        <mxCell id="9b69lBWZdK4Pjx5Hf-To-2" value="&lt;font style=&quot;font-size: 28px;&quot;&gt;geo-tagged images are processed&lt;/font&gt;" style="rounded=0;whiteSpace=wrap;html=1;" vertex="1" parent="1">
          <mxGeometry x="120" y="220" width="500" height="100" as="geometry" />
        </mxCell>
        <mxCell id="9b69lBWZdK4Pjx5Hf-To-13" style="edgeStyle=orthogonalEdgeStyle;rounded=0;orthogonalLoop=1;jettySize=auto;html=1;entryX=0.5;entryY=0;entryDx=0;entryDy=0;strokeWidth=3;" edge="1" parent="1" source="9b69lBWZdK4Pjx5Hf-To-3" target="9b69lBWZdK4Pjx5Hf-To-4">
          <mxGeometry relative="1" as="geometry" />
        </mxCell>
        <mxCell id="9b69lBWZdK4Pjx5Hf-To-3" value="&lt;font style=&quot;font-size: 28px;&quot;&gt;Create JSON Array for co-ordinates&amp;nbsp;&lt;/font&gt;" style="rounded=0;whiteSpace=wrap;html=1;" vertex="1" parent="1">
          <mxGeometry x="120" y="400" width="500" height="100" as="geometry" />
        </mxCell>
        <mxCell id="9b69lBWZdK4Pjx5Hf-To-14" style="edgeStyle=orthogonalEdgeStyle;rounded=0;orthogonalLoop=1;jettySize=auto;html=1;exitX=0.5;exitY=1;exitDx=0;exitDy=0;strokeWidth=3;" edge="1" parent="1" source="9b69lBWZdK4Pjx5Hf-To-4" target="9b69lBWZdK4Pjx5Hf-To-5">
          <mxGeometry relative="1" as="geometry" />
        </mxCell>
        <mxCell id="9b69lBWZdK4Pjx5Hf-To-4" value="&lt;font style=&quot;font-size: 28px;&quot;&gt;Calculate Density per tourist location&lt;/font&gt;" style="rounded=0;whiteSpace=wrap;html=1;" vertex="1" parent="1">
          <mxGeometry x="120" y="580" width="500" height="100" as="geometry" />
        </mxCell>
        <mxCell id="9b69lBWZdK4Pjx5Hf-To-15" style="edgeStyle=orthogonalEdgeStyle;rounded=0;orthogonalLoop=1;jettySize=auto;html=1;entryX=0.5;entryY=0;entryDx=0;entryDy=0;strokeWidth=3;" edge="1" parent="1" source="9b69lBWZdK4Pjx5Hf-To-5" target="9b69lBWZdK4Pjx5Hf-To-7">
          <mxGeometry relative="1" as="geometry" />
        </mxCell>
        <mxCell id="9b69lBWZdK4Pjx5Hf-To-5" value="&lt;font style=&quot;font-size: 28px;&quot;&gt;Density Normalisation&lt;/font&gt;" style="rounded=0;whiteSpace=wrap;html=1;" vertex="1" parent="1">
          <mxGeometry x="120" y="760" width="500" height="100" as="geometry" />
        </mxCell>
        <mxCell id="9b69lBWZdK4Pjx5Hf-To-7" value="&lt;font style=&quot;font-size: 28px;&quot;&gt;Backend Server is up and ready to serve user requests&lt;/font&gt;" style="rounded=0;whiteSpace=wrap;html=1;" vertex="1" parent="1">
          <mxGeometry x="120" y="940" width="500" height="100" as="geometry" />
        </mxCell>
      </root>
    </mxGraphModel>
  </diagram>
</mxfile>
